# File created by Blade
# Date/Time:  Wed Apr 08 14:10:35 2015
# Frame Rate: 120.000 fps
#------------------------------------------------------
:FULLY-SPECIFIED
:DEGREES
725
root 2.515943 33.024841 13.682132 10.826496 3.319219 -4.376130
Spine -10.558932 -6.629789 4.098107
Head 2.984504 -4.287582 -0.311700
LeftShoulder -24.219543 40.563851 19.542770
LeftArm 54.521986 -62.045644 -57.137722
LeftForeArm 12.560050 -0.000000 -2.540360
LeftHand 1.242130 0.000000 2.388406
LeftHandThumb1 -26.253704 0.000000 33.147579
RightShoulder -9.264056 3.343501 -33.406822
RightArm 10.172257 14.572681 32.901157
RightForeArm -17.905236 -0.000000 2.111121
RightHand 0.165128 -0.000000 1.197744
RightHandThumb1 -24.326973 -0.000000 -32.862282
LeftUpLeg -8.584735 -7.418421 2.828709
LeftLeg 1.571714 -0.000000 -0.000000
LeftFoot -8.200884 6.158654 -15.783857
LeftToeBase -7.029418 -0.000000 0.000000
RightUpLeg -6.918468 7.868563 4.466554
RightLeg -1.480139 -0.000000 0.000000
RightFoot -7.272174 -19.647730 7.785016
RightToeBase 1.011906 -0.000000 -0.000000
726
root 2.524252 33.030385 13.662205 10.888003 3.298969 -4.511146
Spine -10.665090 -6.517455 4.249907
Head 3.056906 -4.333647 -0.399386
LeftShoulder -24.158296 40.671203 19.488119
LeftArm 54.606494 -61.755348 -57.135413
LeftForeArm 12.214632 -0.000000 -2.620305
LeftHand 1.217611 -0.000000 2.622993
LeftHandThumb1 -26.253704 0.000000 33.147579
RightShoulder -9.318880 3.358491 -33.343374
RightArm 10.229308 14.600743 33.134767
RightForeArm -17.776256 -0.000000 2.084751
RightHand 0.180126 -0.000000 1.242895
RightHandThumb1 -24.326973 -0.000000 -32.862282
LeftUpLeg -8.601568 -7.377517 2.956231
LeftLeg 1.395232 -0.000000 -0.000000
LeftFoot -8.109263 6.209978 -15.804268
LeftToeBase -6.929040 -0.000000 0.000000
RightUpLeg -7.066409 7.924133 4.558984
RightLeg -1.387830 -0.000000 0.000000
RightFoot -7.280747 -19.611803 7.913786
RightToeBase 1.059285 -0.000000 -0.000000
727
root 2.533653 33.036251 13.644538 10.950258 3.279861 -4.638161
Spine -10.784082 -6.421072 4.405834
Head 3.155998 -4.374615 -0.511976
LeftShoulder -24.069318 40.720209 19.487228
LeftArm 54.747017 -61.523103 -57.309486
LeftForeArm 12.125011 -0.000000 -2.659938
LeftHand 1.482824 -0.000000 2.507631
LeftHandThumb1 -26.253704 0.000000 33.147579
RightShoulder -9.337431 3.378956 -33.292773
RightArm 10.253656 14.787553 33.409993
RightForeArm -17.785819 -0.000000 2.078485
RightHand 0.185143 -0.000000 1.313784
RightHandThumb1 -24.326973 -0.000000 -32.862282
LeftUpLeg -8.612467 -7.270109 3.074362
LeftLeg 1.210066 -0.000000 -0.000000
LeftFoot -7.990872 6.143578 -15.940424
LeftToeBase -6.892759 -0.000000 0.000000
RightUpLeg -7.220693 7.917432 4.653969
RightLeg -1.259595 -0.000000 0.000000
RightFoot -7.373276 -19.532165 8.041665
RightToeBase 1.228636 -0.000000 -0.000000
728
root 2.542699 33.043375 13.626987 11.028777 3.240121 -4.770238
Spine -10.939733 -6.343921 4.582156
Head 3.320040 -4.311483 -0.655065
LeftShoulder -24.041693 40.842422 19.403951
LeftArm 55.039935 -61.346636 -57.622315
LeftForeArm 12.015397 0.000000 -2.686800
LeftHand 1.524908 -0.000000 2.505190
LeftHandThumb1 -26.253704 0.000000 33.147579
RightShoulder -9.319323 3.464330 -33.248911
RightArm 10.267456 14.806648 33.660654
RightForeArm -17.683577 -0.000000 2.047153
RightHand 0.242439 0.000000 1.296265
RightHandThumb1 -24.326973 -0.000000 -32.862282
LeftUpLeg -8.621675 -7.188349 3.197956
LeftLeg 0.993197 -0.000000 -0.000000
LeftFoot -7.878034 6.165450 -16.019788
LeftToeBase -6.850224 -0.000000 0.000000
RightUpLeg -7.393341 7.902347 4.763934
RightLeg -1.113376 -0.000000 0.000000
RightFoot -7.438234 -19.497645 8.096100
RightToeBase 1.347064 -0.000000 -0.000000
729
root 2.548959 33.051560 13.608114 11.094379 3.205953 -4.933317
Spine -11.073444 -6.281987 4.800293
Head 3.466382 -4.292605 -0.818149
LeftShoulder -23.979037 40.873407 19.336094
LeftArm 55.002773 -61.076863 -57.617717
LeftForeArm 11.741629 0.000000 -2.631832
LeftHand 1.072724 -0.000000 2.798874
LeftHandThumb1 -26.253704 0.000000 33.147579
RightShoulder -9.242196 3.598948 -33.181766
RightArm 10.202701 14.840438 33.845540
RightForeArm -17.615360 -0.000000 2.065014
RightHand -0.041166 -0.000000 1.533331
RightHandThumb1 -24.326973 -0.000000 -32.862282
LeftUpLeg -8.614821 -7.091465 3.349974
LeftLeg 0.765018 -0.000000 -0.000000
LeftFoot -7.766656 6.180418 -16.094768
LeftToeBase -6.643554 -0.000000 0.000000
RightUpLeg -7.561678 7.914963 4.909758
RightLeg -0.940317 -0.000000 0.000000
RightFoot -7.552976 -19.483442 8.230697
RightToeBase 1.580748 -0.000000 -0.000000
730
root 2.549950 33.059673 13.590411 11.173415 3.167227 -5.144538
Spine -11.220575 -6.177343 5.049905
Head 3.596035 -4.294579 -0.945150
LeftShoulder -23.933919 40.913685 19.302253
LeftArm 55.378799 -60.911041 -58.077301
LeftForeArm 11.679030 -0.000000 -2.700224
LeftHand 1.411297 -0.000000 2.842799
LeftHandThumb1 -26.253704 0.000000 33.147579
RightShoulder -9.226732 3.662492 -33.180352
RightArm 10.180084 14.907911 34.161320
RightForeArm -17.618452 0.000000 2.022475
RightHand 0.152896 0.000000 1.518122
RightHandThumb1 -24.326973 -0.000000 -32.862282
LeftUpLeg -8.627257 -6.975173 3.551731
LeftLeg 0.554075 -0.000000 -0.000000
LeftFoot -7.687942 6.226393 -16.128591
LeftToeBase -6.576858 -0.000000 0.000000
RightUpLeg -7.749342 7.908913 5.122846
RightLeg -0.744617 -0.000000 0.000000
RightFoot -7.673418 -19.416428 8.358430
RightToeBase 1.961205 -0.000000 -0.000000
